<svg xmlns="http://www.w3.org/2000/svg" xmlns:xlink="http://www.w3.org/1999/xlink" width="500" zoomAndPan="magnify" viewBox="0 0 375 374.999991" height="500" preserveAspectRatio="xMidYMid meet" version="1.0"><defs><g/></defs><g fill="#000000" fill-opacity="1"><g transform="translate(114.796872, 152.62499)"><g><path d="M 3.546875 -20.21875 C 4.234375 -22.539062 4.796875 -24.335938 5.234375 -25.609375 C 5.671875 -26.878906 6.097656 -28.015625 6.515625 -29.015625 C 6.929688 -30.023438 7.40625 -31 7.9375 -31.9375 C 8.476562 -32.875 9.070312 -33.734375 9.71875 -34.515625 C 10.363281 -35.296875 11.050781 -35.910156 11.78125 -36.359375 C 12.507812 -36.816406 13.269531 -37.046875 14.0625 -37.046875 C 14.863281 -37.046875 15.703125 -36.734375 16.578125 -36.109375 C 17.960938 -32.640625 18.8125 -30.3125 19.125 -29.125 C 19.539062 -27.394531 19.921875 -24.945312 20.265625 -21.78125 C 20.578125 -22.582031 20.929688 -23.425781 21.328125 -24.3125 C 21.734375 -25.195312 22.128906 -26.09375 22.515625 -27 C 23.585938 -29.289062 24.265625 -31.023438 24.546875 -32.203125 C 25.304688 -34.628906 26.882812 -36.453125 29.28125 -37.671875 C 31.363281 -38.710938 33.3125 -39.046875 35.125 -38.671875 C 35.851562 -38.523438 36.363281 -38.226562 36.65625 -37.78125 C 36.957031 -37.332031 36.957031 -36.863281 36.65625 -36.375 C 36.363281 -35.882812 36.257812 -35.421875 36.34375 -34.984375 C 36.4375 -34.554688 36.515625 -34.046875 36.578125 -33.453125 C 36.679688 -31.859375 36.398438 -30.441406 35.734375 -29.203125 C 35.078125 -27.972656 34.398438 -26.445312 33.703125 -24.625 C 33.015625 -22.800781 32.3125 -20.863281 31.59375 -18.8125 C 30.882812 -16.757812 30.164062 -14.671875 29.4375 -12.546875 C 28.707031 -10.429688 28 -8.507812 27.3125 -6.78125 C 25.78125 -2.78125 24.523438 -0.570312 23.546875 -0.15625 C 22.234375 0.644531 21.265625 1.113281 20.640625 1.25 C 19.835938 1.382812 18.707031 1.382812 17.25 1.25 C 16.34375 1.175781 15.5625 0.015625 14.90625 -2.234375 C 14.519531 -3.453125 14.171875 -5.140625 13.859375 -7.296875 C 13.304688 -11.046875 12.925781 -13.113281 12.71875 -13.5 C 11.320312 -8.976562 10.335938 -6.125 9.765625 -4.9375 C 9.191406 -3.757812 8.757812 -2.976562 8.46875 -2.59375 C 8.175781 -2.21875 7.820312 -1.71875 7.40625 -1.09375 C 6.945312 0.15625 5.867188 1.078125 4.171875 1.671875 C 2.710938 2.222656 1.390625 2.304688 0.203125 1.921875 C -1.078125 1.503906 -1.457031 0.707031 -0.9375 -0.46875 C -0.550781 -4.632812 0.941406 -11.21875 3.546875 -20.21875 Z M 3.546875 -20.21875 "/></g></g></g><g fill="#000000" fill-opacity="1"><g transform="translate(147.620849, 152.62499)"><g><path d="M 11.78125 -6.5625 C 13.789062 -6.351562 15.289062 -6.25 16.28125 -6.25 C 17.269531 -6.25 18.773438 -6.390625 20.796875 -6.671875 C 21.421875 -6.460938 21.785156 -6.203125 21.890625 -5.890625 C 21.992188 -5.578125 22.023438 -5.253906 21.984375 -4.921875 C 21.953125 -4.585938 21.96875 -4.265625 22.03125 -3.953125 C 22.101562 -3.640625 22.4375 -3.378906 23.03125 -3.171875 C 23.34375 -3.066406 23.4375 -2.765625 23.3125 -2.265625 C 23.195312 -1.765625 22.910156 -1.21875 22.453125 -0.625 C 21.304688 0.863281 19.953125 1.90625 18.390625 2.5 C 15.890625 3.125 13.925781 3.488281 12.5 3.59375 C 10.144531 3.769531 7.578125 3.679688 4.796875 3.328125 C 1.734375 2.773438 0.253906 1.507812 0.359375 -0.46875 C 0.359375 -7.757812 1.957031 -15.085938 5.15625 -22.453125 C 6.195312 -24.859375 7.378906 -27.378906 8.703125 -30.015625 C 8.984375 -30.566406 9.148438 -31.191406 9.203125 -31.890625 C 9.253906 -32.585938 9.296875 -33.265625 9.328125 -33.921875 C 9.359375 -34.578125 9.460938 -35.164062 9.640625 -35.6875 C 9.816406 -36.21875 10.179688 -36.585938 10.734375 -36.796875 C 17.960938 -39.671875 23.675781 -40.78125 27.875 -40.125 C 29.332031 -40.09375 30.296875 -39.597656 30.765625 -38.640625 C 31.234375 -37.679688 31.285156 -36.609375 30.921875 -35.421875 C 30.554688 -34.242188 29.84375 -33.132812 28.78125 -32.09375 C 27.726562 -31.050781 26.398438 -30.410156 24.796875 -30.171875 C 22.753906 -29.578125 21.503906 -29.175781 21.046875 -28.96875 C 20.179688 -28.550781 19.554688 -28 19.171875 -27.3125 C 18.691406 -26.539062 18.242188 -25.804688 17.828125 -25.109375 C 17.410156 -24.421875 17.113281 -23.675781 16.9375 -22.875 L 16.734375 -21.734375 C 17.390625 -21.421875 18.191406 -21.320312 19.140625 -21.4375 C 20.097656 -21.5625 20.984375 -21.679688 21.796875 -21.796875 C 22.617188 -21.921875 23.28125 -21.929688 23.78125 -21.828125 C 24.289062 -21.722656 24.394531 -21.210938 24.09375 -20.296875 C 23.800781 -19.378906 23.265625 -18.34375 22.484375 -17.1875 C 21.703125 -16.039062 20.597656 -15.207031 19.171875 -14.6875 C 18.273438 -14.519531 17.660156 -14.390625 17.328125 -14.296875 C 16.992188 -14.210938 16.742188 -14.15625 16.578125 -14.125 C 16.328125 -14.082031 15.628906 -14.03125 14.484375 -13.96875 C 12.847656 -11.1875 11.859375 -9.03125 11.515625 -7.5 C 11.378906 -6.875 11.46875 -6.5625 11.78125 -6.5625 Z M 11.78125 -6.5625 "/></g></g></g><g fill="#000000" fill-opacity="1"><g transform="translate(174.922055, 152.62499)"><g><path d="M 26.734375 -11.15625 C 25.335938 -10.113281 23.882812 -9.359375 22.375 -8.890625 C 20.863281 -8.421875 19.363281 -8.289062 17.875 -8.5 C 16.382812 -8.707031 15.097656 -9.347656 14.015625 -10.421875 C 13.046875 -7.328125 12.382812 -4.269531 12.03125 -1.25 C 11.894531 -0.695312 11.65625 -0.191406 11.3125 0.265625 C 10.6875 2.097656 9.3125 3.328125 7.1875 3.953125 C 5.101562 4.546875 3.160156 4.441406 1.359375 3.640625 C 0.523438 3.265625 -0.164062 2.710938 -0.71875 1.984375 C -1.28125 1.253906 -1.5625 0.367188 -1.5625 -0.671875 C 0.832031 -8.972656 3.144531 -15.785156 5.375 -21.109375 C 5.851562 -22.210938 6.238281 -23.113281 6.53125 -23.8125 C 6.832031 -24.507812 7.101562 -25.097656 7.34375 -25.578125 C 7.59375 -26.066406 7.8125 -26.492188 8 -26.859375 C 8.1875 -27.222656 8.421875 -27.632812 8.703125 -28.09375 C 9.328125 -29.132812 10.046875 -30.359375 10.859375 -31.765625 C 11.679688 -33.171875 12.378906 -34.21875 12.953125 -34.90625 C 13.523438 -35.601562 14.128906 -36.203125 14.765625 -36.703125 C 15.410156 -37.210938 16.125 -37.691406 16.90625 -38.140625 C 17.6875 -38.597656 18.664062 -39.191406 19.84375 -39.921875 C 21.03125 -40.648438 22.289062 -41.09375 23.625 -41.25 C 24.96875 -41.40625 26.25 -41.289062 27.46875 -40.90625 C 30.03125 -40.101562 31.921875 -38.3125 33.140625 -35.53125 C 34.179688 -32.96875 34.351562 -29.515625 33.65625 -25.171875 C 32.582031 -18.535156 30.273438 -13.863281 26.734375 -11.15625 Z M 15.84375 -15.796875 C 18.6875 -16.421875 20.664062 -18.273438 21.78125 -21.359375 C 22.71875 -23.960938 22.910156 -26.914062 22.359375 -30.21875 C 21.554688 -28.863281 20.832031 -27.457031 20.1875 -26 C 19.550781 -24.539062 18.972656 -23.238281 18.453125 -22.09375 C 17.304688 -19.519531 16.4375 -17.421875 15.84375 -15.796875 Z M 15.84375 -15.796875 "/></g></g></g><g fill="#000000" fill-opacity="1"><g transform="translate(206.495593, 152.62499)"><g><path d="M 28.8125 -35.328125 C 30 -34.703125 30.75 -33.78125 31.0625 -32.5625 C 30.363281 -28.675781 29.734375 -24.8125 29.171875 -20.96875 C 28.617188 -17.132812 28.082031 -13.921875 27.5625 -11.328125 C 27.039062 -8.742188 26.6875 -6.804688 26.5 -5.515625 C 26.3125 -4.234375 26.09375 -2.953125 25.84375 -1.671875 L 25.53125 -0.578125 C 25.457031 -0.191406 25.382812 0.160156 25.3125 0.484375 C 25.25 0.816406 25.179688 1.175781 25.109375 1.5625 C 24.140625 2.675781 22.820312 3.234375 21.15625 3.234375 C 19.382812 3.234375 17.976562 2.78125 16.9375 1.875 C 16.3125 1.382812 16.207031 0.359375 16.625 -1.203125 C 16.800781 -1.828125 16.914062 -2.632812 16.96875 -3.625 C 17.019531 -4.613281 17.078125 -5.4375 17.140625 -6.09375 L 17.140625 -6.203125 C 16.097656 -5.816406 15.160156 -5.316406 14.328125 -4.703125 C 13.492188 -4.097656 12.972656 -3.71875 12.765625 -3.5625 C 12.554688 -3.40625 12.273438 -3.285156 11.921875 -3.203125 C 11.578125 -3.117188 11.269531 -3.054688 11 -3.015625 C 10.332031 -2.984375 9.878906 -2.878906 9.640625 -2.703125 C 7.628906 0.898438 5.820312 2.910156 4.21875 3.328125 C 3.207031 3.640625 2.195312 3.71875 1.1875 3.5625 C 0.1875 3.40625 -0.609375 2.804688 -1.203125 1.765625 C -2.304688 0.722656 -2.023438 -2.125 -0.359375 -6.78125 C 0.535156 -9.238281 1.828125 -12.195312 3.515625 -15.65625 C 5.203125 -19.113281 6.828125 -22.128906 8.390625 -24.703125 C 11.753906 -30.222656 15.453125 -34.878906 19.484375 -38.671875 C 20.148438 -38.941406 20.863281 -39.257812 21.625 -39.625 C 22.382812 -39.988281 23.140625 -40.1875 23.890625 -40.21875 C 24.640625 -40.257812 25.410156 -40.175781 26.203125 -39.96875 C 27.003906 -39.757812 27.6875 -39.445312 28.25 -39.03125 C 29.53125 -38.0625 29.71875 -36.828125 28.8125 -35.328125 Z M 17.671875 -21.625 C 16.941406 -19.539062 16.207031 -17.617188 15.46875 -15.859375 C 14.738281 -14.109375 14.113281 -12.570312 13.59375 -11.25 L 17.71875 -11.40625 C 18 -13.632812 18.3125 -15.84375 18.65625 -18.03125 C 19 -20.21875 19.328125 -22.40625 19.640625 -24.59375 Z M 16.265625 -11.203125 C 16.742188 -11.203125 17.226562 -11.238281 17.71875 -11.3125 L 17.71875 -11.359375 C 17.269531 -11.328125 16.851562 -11.289062 16.46875 -11.25 C 16.082031 -11.21875 16.015625 -11.203125 16.265625 -11.203125 Z M 16.265625 -11.203125 "/></g></g></g><g fill="#000000" fill-opacity="1"><g transform="translate(235.880871, 152.62499)"><g><path d="M 18.078125 2.5 C 17.347656 2.707031 16.648438 2.816406 15.984375 2.828125 C 15.328125 2.847656 14.660156 2.875 13.984375 2.90625 C 13.304688 2.945312 12.375 2.96875 11.1875 2.96875 C 10.007812 2.96875 8.242188 2.929688 5.890625 2.859375 C 5.328125 2.898438 4.765625 2.921875 4.203125 2.921875 C 3.648438 2.921875 3.132812 2.816406 2.65625 2.609375 C 1.570312 2.148438 0.84375 1.109375 0.46875 -0.515625 C 0.289062 -1.285156 0.09375 -1.828125 -0.125 -2.140625 C -0.351562 -2.453125 -0.539062 -2.742188 -0.6875 -3.015625 C -1.03125 -3.578125 -1 -4.5 -0.59375 -5.78125 C -0.195312 -7.070312 0.3125 -8.660156 0.9375 -10.546875 C 1.5625 -12.441406 2.269531 -14.453125 3.0625 -16.578125 C 4.945312 -21.609375 6.632812 -25.601562 8.125 -28.5625 C 8.71875 -29.875 9.226562 -31.015625 9.65625 -31.984375 C 10.09375 -32.960938 10.484375 -33.804688 10.828125 -34.515625 C 11.179688 -35.234375 11.359375 -35.609375 11.359375 -35.640625 C 11.703125 -36.960938 13.035156 -38.078125 15.359375 -38.984375 C 17.617188 -39.921875 19.671875 -40.160156 21.515625 -39.703125 C 23.566406 -39.179688 24.46875 -37.828125 24.21875 -35.640625 C 23.738281 -33.484375 23.019531 -31.328125 22.0625 -29.171875 C 21.101562 -27.023438 20.015625 -24.769531 18.796875 -22.40625 C 17.585938 -20.039062 16.269531 -17.535156 14.84375 -14.890625 C 13.414062 -12.253906 12.007812 -9.394531 10.625 -6.3125 C 10.59375 -6.164062 10.660156 -6.039062 10.828125 -5.9375 C 11.285156 -5.976562 11.921875 -6.117188 12.734375 -6.359375 C 13.546875 -6.597656 14.394531 -6.8125 15.28125 -7 C 16.175781 -7.195312 17.054688 -7.296875 17.921875 -7.296875 C 18.785156 -7.296875 19.515625 -7.070312 20.109375 -6.625 C 20.078125 -6 20.234375 -5.5 20.578125 -5.125 C 20.921875 -4.757812 21.269531 -4.40625 21.625 -4.0625 C 22.488281 -3.15625 22.554688 -1.957031 21.828125 -0.46875 C 21.128906 0.988281 19.878906 1.976562 18.078125 2.5 Z M 18.078125 2.5 "/></g></g></g><g fill="#000000" fill-opacity="1"><g transform="translate(47.554689, 207.374986)"><g><path d="M 12.453125 -11.359375 L 9.953125 -5 C 9.609375 -4.03125 9.296875 -3.023438 9.015625 -1.984375 C 8.734375 -0.941406 8.4375 -0.03125 8.125 0.75 C 7.8125 1.53125 7.332031 2.144531 6.6875 2.59375 C 6.050781 3.050781 5.332031 3.390625 4.53125 3.609375 C 3.726562 3.835938 2.898438 3.9375 2.046875 3.90625 C 1.203125 3.875 0.453125 3.71875 -0.203125 3.4375 C -1.703125 2.738281 -2.222656 1.59375 -1.765625 0 C -0.171875 -7.019531 1.328125 -12.644531 2.734375 -16.875 C 4.140625 -21.113281 5.300781 -24.445312 6.21875 -26.875 C 7.144531 -29.3125 8.113281 -31.882812 9.125 -34.59375 C 9.226562 -35.601562 9.644531 -36.507812 10.375 -37.3125 C 11.101562 -38.113281 11.960938 -38.773438 12.953125 -39.296875 C 13.941406 -39.816406 14.972656 -40.1875 16.046875 -40.40625 C 17.128906 -40.632812 18.085938 -40.660156 18.921875 -40.484375 C 19.753906 -40.316406 20.367188 -39.9375 20.765625 -39.34375 C 21.160156 -38.75 21.1875 -37.898438 20.84375 -36.796875 C 19.59375 -33.597656 18.707031 -31.335938 18.1875 -30.015625 C 17.664062 -28.691406 17.195312 -27.507812 16.78125 -26.46875 L 15.3125 -23.03125 C 16.050781 -23 16.972656 -23.101562 18.078125 -23.34375 C 20.097656 -23.789062 21.554688 -23.945312 22.453125 -23.8125 C 22.453125 -23.988281 22.539062 -24.285156 22.71875 -24.703125 C 23.6875 -28.941406 24.78125 -32.832031 26 -36.375 C 26.875 -39.289062 29.113281 -40.816406 32.71875 -40.953125 C 34.144531 -40.953125 35.222656 -40.609375 35.953125 -39.921875 C 36.753906 -39.191406 36.859375 -38.203125 36.265625 -36.953125 C 33.066406 -27.984375 30.8125 -20.910156 29.5 -15.734375 C 28 -9.765625 27.015625 -5.734375 26.546875 -3.640625 C 26.078125 -1.554688 25.664062 -0.328125 25.3125 0.046875 C 24.96875 0.429688 24.613281 0.703125 24.25 0.859375 C 23.882812 1.015625 23.53125 1.160156 23.1875 1.296875 C 22.84375 1.441406 22.566406 1.789062 22.359375 2.34375 L 22.203125 2.34375 C 21.921875 2.96875 21.3125 3.453125 20.375 3.796875 C 19.4375 4.148438 18.488281 4.28125 17.53125 4.1875 C 16.582031 4.101562 15.785156 3.753906 15.140625 3.140625 C 14.492188 2.535156 14.328125 1.609375 14.640625 0.359375 C 14.984375 -1.617188 15.554688 -3.742188 16.359375 -6.015625 C 17.160156 -8.296875 17.796875 -10.078125 18.265625 -11.359375 C 18.734375 -12.640625 19.125 -13.835938 19.4375 -14.953125 C 19.15625 -14.816406 18.882812 -14.710938 18.625 -14.640625 C 18.363281 -14.566406 18.039062 -14.4375 17.65625 -14.25 C 17.28125 -14.0625 16.890625 -13.894531 16.484375 -13.75 C 16.085938 -13.613281 15.695312 -13.476562 15.3125 -13.34375 C 14.34375 -12.957031 13.546875 -12.570312 12.921875 -12.1875 Z M 18.34375 -14.84375 C 18.375 -14.84375 18.546875 -14.894531 18.859375 -15 C 18.648438 -14.9375 18.476562 -14.882812 18.34375 -14.84375 Z M 18.34375 -14.84375 "/></g></g></g><g fill="#000000" fill-opacity="1"><g transform="translate(78.190394, 207.374986)"><g><path d="M 11.78125 -6.5625 C 13.789062 -6.351562 15.289062 -6.25 16.28125 -6.25 C 17.269531 -6.25 18.773438 -6.390625 20.796875 -6.671875 C 21.421875 -6.460938 21.785156 -6.203125 21.890625 -5.890625 C 21.992188 -5.578125 22.023438 -5.253906 21.984375 -4.921875 C 21.953125 -4.585938 21.96875 -4.265625 22.03125 -3.953125 C 22.101562 -3.640625 22.4375 -3.378906 23.03125 -3.171875 C 23.34375 -3.066406 23.4375 -2.765625 23.3125 -2.265625 C 23.195312 -1.765625 22.910156 -1.21875 22.453125 -0.625 C 21.304688 0.863281 19.953125 1.90625 18.390625 2.5 C 15.890625 3.125 13.925781 3.488281 12.5 3.59375 C 10.144531 3.769531 7.578125 3.679688 4.796875 3.328125 C 1.734375 2.773438 0.253906 1.507812 0.359375 -0.46875 C 0.359375 -7.757812 1.957031 -15.085938 5.15625 -22.453125 C 6.195312 -24.859375 7.378906 -27.378906 8.703125 -30.015625 C 8.984375 -30.566406 9.148438 -31.191406 9.203125 -31.890625 C 9.253906 -32.585938 9.296875 -33.265625 9.328125 -33.921875 C 9.359375 -34.578125 9.460938 -35.164062 9.640625 -35.6875 C 9.816406 -36.21875 10.179688 -36.585938 10.734375 -36.796875 C 17.960938 -39.671875 23.675781 -40.78125 27.875 -40.125 C 29.332031 -40.09375 30.296875 -39.597656 30.765625 -38.640625 C 31.234375 -37.679688 31.285156 -36.609375 30.921875 -35.421875 C 30.554688 -34.242188 29.84375 -33.132812 28.78125 -32.09375 C 27.726562 -31.050781 26.398438 -30.410156 24.796875 -30.171875 C 22.753906 -29.578125 21.503906 -29.175781 21.046875 -28.96875 C 20.179688 -28.550781 19.554688 -28 19.171875 -27.3125 C 18.691406 -26.539062 18.242188 -25.804688 17.828125 -25.109375 C 17.410156 -24.421875 17.113281 -23.675781 16.9375 -22.875 L 16.734375 -21.734375 C 17.390625 -21.421875 18.191406 -21.320312 19.140625 -21.4375 C 20.097656 -21.5625 20.984375 -21.679688 21.796875 -21.796875 C 22.617188 -21.921875 23.28125 -21.929688 23.78125 -21.828125 C 24.289062 -21.722656 24.394531 -21.210938 24.09375 -20.296875 C 23.800781 -19.378906 23.265625 -18.34375 22.484375 -17.1875 C 21.703125 -16.039062 20.597656 -15.207031 19.171875 -14.6875 C 18.273438 -14.519531 17.660156 -14.390625 17.328125 -14.296875 C 16.992188 -14.210938 16.742188 -14.15625 16.578125 -14.125 C 16.328125 -14.082031 15.628906 -14.03125 14.484375 -13.96875 C 12.847656 -11.1875 11.859375 -9.03125 11.515625 -7.5 C 11.378906 -6.875 11.46875 -6.5625 11.78125 -6.5625 Z M 11.78125 -6.5625 "/></g></g></g><g fill="#000000" fill-opacity="1"><g transform="translate(105.491601, 207.374986)"><g><path d="M 18.078125 2.5 C 17.347656 2.707031 16.648438 2.816406 15.984375 2.828125 C 15.328125 2.847656 14.660156 2.875 13.984375 2.90625 C 13.304688 2.945312 12.375 2.96875 11.1875 2.96875 C 10.007812 2.96875 8.242188 2.929688 5.890625 2.859375 C 5.328125 2.898438 4.765625 2.921875 4.203125 2.921875 C 3.648438 2.921875 3.132812 2.816406 2.65625 2.609375 C 1.570312 2.148438 0.84375 1.109375 0.46875 -0.515625 C 0.289062 -1.285156 0.09375 -1.828125 -0.125 -2.140625 C -0.351562 -2.453125 -0.539062 -2.742188 -0.6875 -3.015625 C -1.03125 -3.578125 -1 -4.5 -0.59375 -5.78125 C -0.195312 -7.070312 0.3125 -8.660156 0.9375 -10.546875 C 1.5625 -12.441406 2.269531 -14.453125 3.0625 -16.578125 C 4.945312 -21.609375 6.632812 -25.601562 8.125 -28.5625 C 8.71875 -29.875 9.226562 -31.015625 9.65625 -31.984375 C 10.09375 -32.960938 10.484375 -33.804688 10.828125 -34.515625 C 11.179688 -35.234375 11.359375 -35.609375 11.359375 -35.640625 C 11.703125 -36.960938 13.035156 -38.078125 15.359375 -38.984375 C 17.617188 -39.921875 19.671875 -40.160156 21.515625 -39.703125 C 23.566406 -39.179688 24.46875 -37.828125 24.21875 -35.640625 C 23.738281 -33.484375 23.019531 -31.328125 22.0625 -29.171875 C 21.101562 -27.023438 20.015625 -24.769531 18.796875 -22.40625 C 17.585938 -20.039062 16.269531 -17.535156 14.84375 -14.890625 C 13.414062 -12.253906 12.007812 -9.394531 10.625 -6.3125 C 10.59375 -6.164062 10.660156 -6.039062 10.828125 -5.9375 C 11.285156 -5.976562 11.921875 -6.117188 12.734375 -6.359375 C 13.546875 -6.597656 14.394531 -6.8125 15.28125 -7 C 16.175781 -7.195312 17.054688 -7.296875 17.921875 -7.296875 C 18.785156 -7.296875 19.515625 -7.070312 20.109375 -6.625 C 20.078125 -6 20.234375 -5.5 20.578125 -5.125 C 20.921875 -4.757812 21.269531 -4.40625 21.625 -4.0625 C 22.488281 -3.15625 22.554688 -1.957031 21.828125 -0.46875 C 21.128906 0.988281 19.878906 1.976562 18.078125 2.5 Z M 18.078125 2.5 "/></g></g></g><g fill="#000000" fill-opacity="1"><g transform="translate(129.82302, 207.374986)"><g><path d="M 22.03125 -35.21875 C 20.820312 -31.4375 19.703125 -28.015625 18.671875 -24.953125 C 17.648438 -21.898438 16.710938 -19.085938 15.859375 -16.515625 C 15.003906 -13.941406 14.210938 -11.570312 13.484375 -9.40625 C 12.753906 -7.238281 12.078125 -5.160156 11.453125 -3.171875 C 11.109375 -0.878906 9.984375 0.734375 8.078125 1.671875 C 6.960938 2.191406 5.640625 2.453125 4.109375 2.453125 C 2.578125 2.453125 1.429688 2.285156 0.671875 1.953125 C -0.0859375 1.617188 -0.582031 1.140625 -0.8125 0.515625 C -1.039062 -0.109375 -1.039062 -0.863281 -0.8125 -1.75 C -0.582031 -2.632812 -0.191406 -3.847656 0.359375 -5.390625 C 0.910156 -6.941406 1.613281 -9.035156 2.46875 -11.671875 C 3.320312 -14.316406 4.21875 -16.992188 5.15625 -19.703125 C 7.476562 -26.472656 9.316406 -31.160156 10.671875 -33.765625 C 11.191406 -34.734375 11.710938 -35.382812 12.234375 -35.71875 C 12.753906 -36.050781 13.257812 -36.296875 13.75 -36.453125 C 14.238281 -36.609375 14.691406 -36.789062 15.109375 -37 C 15.523438 -37.207031 15.894531 -37.726562 16.21875 -38.5625 C 16.550781 -39.394531 17.160156 -39.96875 18.046875 -40.28125 C 18.929688 -40.59375 19.765625 -40.617188 20.546875 -40.359375 C 21.328125 -40.097656 21.914062 -39.539062 22.3125 -38.6875 C 22.71875 -37.84375 22.625 -36.6875 22.03125 -35.21875 Z M 22.03125 -35.21875 "/></g></g></g><g fill="#000000" fill-opacity="1"><g transform="translate(148.944289, 207.374986)"><g><path d="M 23.390625 -25.953125 C 23.390625 -26.992188 23.023438 -27.515625 22.296875 -27.515625 C 22.023438 -27.515625 21.695312 -27.441406 21.3125 -27.296875 C 20.925781 -27.160156 20.5625 -27.039062 20.21875 -26.9375 C 18.9375 -26.238281 17.9375 -25.484375 17.21875 -24.671875 C 16.507812 -23.859375 15.789062 -22.945312 15.0625 -21.9375 C 14.332031 -20.925781 13.707031 -19.847656 13.1875 -18.703125 C 12.664062 -17.554688 12.265625 -16.476562 11.984375 -15.46875 C 10.972656 -11.757812 11.351562 -9.257812 13.125 -7.96875 C 13.851562 -7.445312 14.625 -7.195312 15.4375 -7.21875 C 16.257812 -7.238281 16.921875 -7.40625 17.421875 -7.71875 C 17.929688 -8.03125 18.425781 -8.320312 18.90625 -8.59375 C 19.394531 -8.875 19.960938 -9.070312 20.609375 -9.1875 C 21.253906 -9.3125 22.050781 -9.226562 23 -8.9375 C 23.957031 -8.644531 24.46875 -8.253906 24.53125 -7.765625 C 24.601562 -7.273438 24.601562 -6.769531 24.53125 -6.25 C 24.46875 -5.726562 24.460938 -5.257812 24.515625 -4.84375 C 24.566406 -4.425781 24.941406 -4.164062 25.640625 -4.0625 C 26.296875 -3.226562 25.878906 -2.222656 24.390625 -1.046875 C 24.003906 -0.734375 23.640625 -0.4375 23.296875 -0.15625 C 20.304688 1.75 17.125 2.804688 13.75 3.015625 C 11.632812 3.160156 9.378906 2.78125 6.984375 1.875 C 3.398438 0.519531 1.382812 -2.519531 0.9375 -7.25 C 0.34375 -11.625 0.898438 -16.15625 2.609375 -20.84375 C 4.023438 -24.800781 6.175781 -28.46875 9.0625 -31.84375 C 11.664062 -34.9375 14.238281 -36.953125 16.78125 -37.890625 C 19.800781 -39.453125 23.066406 -40.054688 26.578125 -39.703125 C 30.296875 -39.222656 32.726562 -37.644531 33.875 -34.96875 C 35.019531 -32.289062 34.828125 -29.078125 33.296875 -25.328125 C 32.773438 -24.003906 31.785156 -22.960938 30.328125 -22.203125 C 29.078125 -21.503906 27.722656 -21.15625 26.265625 -21.15625 C 24.804688 -21.15625 23.867188 -21.613281 23.453125 -22.53125 C 23.035156 -23.457031 23.015625 -24.597656 23.390625 -25.953125 Z M 23.390625 -25.953125 "/></g></g></g><g fill="#000000" fill-opacity="1"><g transform="translate(178.798478, 207.374986)"><g><path d="M 10.578125 -34.5 C 12.765625 -37 15.195312 -38.5625 17.875 -39.1875 C 19.71875 -39.632812 21.453125 -39.566406 23.078125 -38.984375 C 24.367188 -40.335938 26.039062 -40.820312 28.09375 -40.4375 C 29.96875 -40.09375 31.5625 -39.035156 32.875 -37.265625 C 32.945312 -37.015625 33.09375 -36.644531 33.3125 -36.15625 C 33.539062 -35.675781 33.757812 -35.140625 33.96875 -34.546875 C 35.5 -31.003906 35.625 -26.347656 34.34375 -20.578125 C 32.738281 -13.421875 29.90625 -7.359375 25.84375 -2.390625 C 24.59375 -0.867188 23.1875 0.394531 21.625 1.40625 C 19.125 3.3125 16.132812 4.160156 12.65625 3.953125 C 10.507812 3.847656 8.707031 3.3125 7.25 2.34375 C 1.445312 -0.539062 -0.445312 -6.550781 1.5625 -15.6875 C 3.226562 -23.1875 6.234375 -29.457031 10.578125 -34.5 Z M 11.203125 -6.828125 L 11.15625 -6.515625 L 11.25 -5.9375 C 11.457031 -4.863281 11.804688 -4.039062 12.296875 -3.46875 C 12.785156 -2.894531 13.1875 -2.535156 13.5 -2.390625 C 13.84375 -2.671875 14.1875 -2.929688 14.53125 -3.171875 C 14.882812 -3.421875 15.195312 -3.71875 15.46875 -4.0625 C 17.832031 -6.976562 19.675781 -10.796875 21 -15.515625 C 22.320312 -20.242188 22.804688 -24.625 22.453125 -28.65625 C 21.097656 -26.925781 19.675781 -24.929688 18.1875 -22.671875 C 16.695312 -20.410156 15.515625 -18.484375 14.640625 -16.890625 C 12.660156 -13.171875 11.515625 -9.816406 11.203125 -6.828125 Z M 11.203125 -6.828125 "/></g></g></g><g fill="#000000" fill-opacity="1"><g transform="translate(212.091364, 207.374986)"><g><path d="M 26.734375 -11.15625 C 25.335938 -10.113281 23.882812 -9.359375 22.375 -8.890625 C 20.863281 -8.421875 19.363281 -8.289062 17.875 -8.5 C 16.382812 -8.707031 15.097656 -9.347656 14.015625 -10.421875 C 13.046875 -7.328125 12.382812 -4.269531 12.03125 -1.25 C 11.894531 -0.695312 11.65625 -0.191406 11.3125 0.265625 C 10.6875 2.097656 9.3125 3.328125 7.1875 3.953125 C 5.101562 4.546875 3.160156 4.441406 1.359375 3.640625 C 0.523438 3.265625 -0.164062 2.710938 -0.71875 1.984375 C -1.28125 1.253906 -1.5625 0.367188 -1.5625 -0.671875 C 0.832031 -8.972656 3.144531 -15.785156 5.375 -21.109375 C 5.851562 -22.210938 6.238281 -23.113281 6.53125 -23.8125 C 6.832031 -24.507812 7.101562 -25.097656 7.34375 -25.578125 C 7.59375 -26.066406 7.8125 -26.492188 8 -26.859375 C 8.1875 -27.222656 8.421875 -27.632812 8.703125 -28.09375 C 9.328125 -29.132812 10.046875 -30.359375 10.859375 -31.765625 C 11.679688 -33.171875 12.378906 -34.21875 12.953125 -34.90625 C 13.523438 -35.601562 14.128906 -36.203125 14.765625 -36.703125 C 15.410156 -37.210938 16.125 -37.691406 16.90625 -38.140625 C 17.6875 -38.597656 18.664062 -39.191406 19.84375 -39.921875 C 21.03125 -40.648438 22.289062 -41.09375 23.625 -41.25 C 24.96875 -41.40625 26.25 -41.289062 27.46875 -40.90625 C 30.03125 -40.101562 31.921875 -38.3125 33.140625 -35.53125 C 34.179688 -32.96875 34.351562 -29.515625 33.65625 -25.171875 C 32.582031 -18.535156 30.273438 -13.863281 26.734375 -11.15625 Z M 15.84375 -15.796875 C 18.6875 -16.421875 20.664062 -18.273438 21.78125 -21.359375 C 22.71875 -23.960938 22.910156 -26.914062 22.359375 -30.21875 C 21.554688 -28.863281 20.832031 -27.457031 20.1875 -26 C 19.550781 -24.539062 18.972656 -23.238281 18.453125 -22.09375 C 17.304688 -19.519531 16.4375 -17.421875 15.84375 -15.796875 Z M 15.84375 -15.796875 "/></g></g></g><g fill="#000000" fill-opacity="1"><g transform="translate(243.66489, 207.374986)"><g><path d="M 18.15625 -13.359375 C 17.207031 -10.640625 16.242188 -8.023438 15.265625 -5.515625 C 14.296875 -3.015625 13.488281 -1.113281 12.84375 0.1875 C 12.195312 1.488281 11.628906 2.378906 11.140625 2.859375 C 10.660156 3.347656 10.164062 3.675781 9.65625 3.84375 C 9.15625 4.019531 8.65625 4.09375 8.15625 4.0625 C 7.65625 4.03125 7.144531 3.992188 6.625 3.953125 C 3.695312 3.503906 2.789062 1.40625 3.90625 -2.34375 C 4.632812 -5.332031 5.222656 -7.769531 5.671875 -9.65625 C 6.128906 -11.550781 6.503906 -13.113281 6.796875 -14.34375 C 7.097656 -15.582031 7.351562 -16.609375 7.5625 -17.421875 C 7.769531 -18.242188 7.992188 -19.050781 8.234375 -19.84375 C 8.472656 -20.644531 8.773438 -21.550781 9.140625 -22.5625 C 9.503906 -23.570312 9.984375 -24.910156 10.578125 -26.578125 C 9.253906 -26.398438 8.070312 -26.539062 7.03125 -27 C 5.5 -27.65625 4.875 -29.078125 5.15625 -31.265625 C 5.300781 -32.273438 5.84375 -33.210938 6.78125 -34.078125 C 7.257812 -34.523438 7.832031 -35.007812 8.5 -35.53125 C 9.851562 -36.613281 12.546875 -37.765625 16.578125 -38.984375 C 20.742188 -40.234375 24.320312 -40.820312 27.3125 -40.75 C 28.101562 -40.882812 28.925781 -40.785156 29.78125 -40.453125 C 30.632812 -40.128906 31.320312 -39.6875 31.84375 -39.125 C 32.363281 -38.570312 32.628906 -37.960938 32.640625 -37.296875 C 32.660156 -36.640625 32.238281 -36.050781 31.375 -35.53125 C 30.957031 -35.257812 30.660156 -34.800781 30.484375 -34.15625 C 30.304688 -33.507812 30.113281 -32.832031 29.90625 -32.125 C 29.695312 -31.414062 29.394531 -30.765625 29 -30.171875 C 28.601562 -29.578125 27.96875 -29.226562 27.09375 -29.125 C 26.644531 -28.882812 26.007812 -28.710938 25.1875 -28.609375 C 24.375 -28.503906 23.835938 -28.425781 23.578125 -28.375 C 23.316406 -28.320312 23.171875 -28.226562 23.140625 -28.09375 C 22.515625 -26.25 21.765625 -24.015625 20.890625 -21.390625 C 20.023438 -18.765625 19.113281 -16.085938 18.15625 -13.359375 Z M 11.09375 -27.15625 C 11.03125 -27.15625 11 -27.144531 11 -27.125 C 11 -27.101562 11.03125 -27.09375 11.09375 -27.09375 Z M 11.09375 -27.15625 "/></g></g></g><g fill="#000000" fill-opacity="1"><g transform="translate(269.819857, 207.374986)"><g><path d="M 11.78125 -6.5625 C 13.789062 -6.351562 15.289062 -6.25 16.28125 -6.25 C 17.269531 -6.25 18.773438 -6.390625 20.796875 -6.671875 C 21.421875 -6.460938 21.785156 -6.203125 21.890625 -5.890625 C 21.992188 -5.578125 22.023438 -5.253906 21.984375 -4.921875 C 21.953125 -4.585938 21.96875 -4.265625 22.03125 -3.953125 C 22.101562 -3.640625 22.4375 -3.378906 23.03125 -3.171875 C 23.34375 -3.066406 23.4375 -2.765625 23.3125 -2.265625 C 23.195312 -1.765625 22.910156 -1.21875 22.453125 -0.625 C 21.304688 0.863281 19.953125 1.90625 18.390625 2.5 C 15.890625 3.125 13.925781 3.488281 12.5 3.59375 C 10.144531 3.769531 7.578125 3.679688 4.796875 3.328125 C 1.734375 2.773438 0.253906 1.507812 0.359375 -0.46875 C 0.359375 -7.757812 1.957031 -15.085938 5.15625 -22.453125 C 6.195312 -24.859375 7.378906 -27.378906 8.703125 -30.015625 C 8.984375 -30.566406 9.148438 -31.191406 9.203125 -31.890625 C 9.253906 -32.585938 9.296875 -33.265625 9.328125 -33.921875 C 9.359375 -34.578125 9.460938 -35.164062 9.640625 -35.6875 C 9.816406 -36.21875 10.179688 -36.585938 10.734375 -36.796875 C 17.960938 -39.671875 23.675781 -40.78125 27.875 -40.125 C 29.332031 -40.09375 30.296875 -39.597656 30.765625 -38.640625 C 31.234375 -37.679688 31.285156 -36.609375 30.921875 -35.421875 C 30.554688 -34.242188 29.84375 -33.132812 28.78125 -32.09375 C 27.726562 -31.050781 26.398438 -30.410156 24.796875 -30.171875 C 22.753906 -29.578125 21.503906 -29.175781 21.046875 -28.96875 C 20.179688 -28.550781 19.554688 -28 19.171875 -27.3125 C 18.691406 -26.539062 18.242188 -25.804688 17.828125 -25.109375 C 17.410156 -24.421875 17.113281 -23.675781 16.9375 -22.875 L 16.734375 -21.734375 C 17.390625 -21.421875 18.191406 -21.320312 19.140625 -21.4375 C 20.097656 -21.5625 20.984375 -21.679688 21.796875 -21.796875 C 22.617188 -21.921875 23.28125 -21.929688 23.78125 -21.828125 C 24.289062 -21.722656 24.394531 -21.210938 24.09375 -20.296875 C 23.800781 -19.378906 23.265625 -18.34375 22.484375 -17.1875 C 21.703125 -16.039062 20.597656 -15.207031 19.171875 -14.6875 C 18.273438 -14.519531 17.660156 -14.390625 17.328125 -14.296875 C 16.992188 -14.210938 16.742188 -14.15625 16.578125 -14.125 C 16.328125 -14.082031 15.628906 -14.03125 14.484375 -13.96875 C 12.847656 -11.1875 11.859375 -9.03125 11.515625 -7.5 C 11.378906 -6.875 11.46875 -6.5625 11.78125 -6.5625 Z M 11.78125 -6.5625 "/></g></g></g><g fill="#000000" fill-opacity="1"><g transform="translate(297.121063, 207.374986)"><g><path d="M 9.125 0.15625 C 8.8125 1.539062 7.734375 2.390625 5.890625 2.703125 C 4.179688 3.015625 2.566406 2.828125 1.046875 2.140625 C -0.660156 1.410156 -1.410156 0.382812 -1.203125 -0.9375 C -1.410156 -2.945312 -0.347656 -7.320312 1.984375 -14.0625 C 5.453125 -24.175781 8.925781 -31.40625 12.40625 -35.75 C 13.300781 -36.863281 14.070312 -37.582031 14.71875 -37.90625 C 15.363281 -38.238281 16.101562 -38.539062 16.9375 -38.8125 C 17.769531 -39.09375 18.640625 -39.359375 19.546875 -39.609375 C 21.347656 -40.085938 23.054688 -40.421875 24.671875 -40.609375 C 26.285156 -40.804688 27.734375 -40.617188 29.015625 -40.046875 C 30.304688 -39.472656 31.304688 -38.628906 32.015625 -37.515625 C 32.734375 -36.398438 33.175781 -35.085938 33.34375 -33.578125 C 33.519531 -32.066406 33.46875 -30.488281 33.1875 -28.84375 C 32.914062 -27.195312 32.414062 -25.53125 31.6875 -23.84375 C 30.957031 -22.15625 30.035156 -20.582031 28.921875 -19.125 C 26.484375 -15.925781 23.632812 -13.859375 20.375 -12.921875 L 20.890625 -12.03125 C 21.347656 -11.34375 21.894531 -10.582031 22.53125 -9.75 C 23.175781 -8.914062 23.816406 -8.0625 24.453125 -7.1875 C 25.097656 -6.320312 25.679688 -5.453125 26.203125 -4.578125 C 26.734375 -3.710938 27.117188 -2.898438 27.359375 -2.140625 C 27.910156 -0.429688 27.476562 0.800781 26.0625 1.5625 C 24.90625 2.257812 24 2.429688 23.34375 2.078125 C 23.0625 1.910156 22.78125 1.695312 22.5 1.4375 C 22.226562 1.175781 21.847656 0.957031 21.359375 0.78125 C 19.316406 1.375 17.753906 0.851562 16.671875 -0.78125 C 16.015625 -1.820312 15.507812 -2.773438 15.15625 -3.640625 C 14.8125 -4.515625 14.519531 -5.25 14.28125 -5.84375 C 13.65625 -7.125 12.941406 -8.234375 12.140625 -9.171875 C 11.753906 -8.234375 11.320312 -7.035156 10.84375 -5.578125 C 10.25 -3.734375 9.585938 -1.820312 8.859375 0.15625 Z M 19.640625 -30.171875 C 18.984375 -28.679688 18.535156 -27.640625 18.296875 -27.046875 C 17.804688 -25.859375 17.265625 -24.554688 16.671875 -23.140625 C 16.566406 -22.367188 16.484375 -21.828125 16.421875 -21.515625 L 17.140625 -22.25 L 18.03125 -22.671875 C 18.65625 -23.015625 19.226562 -23.320312 19.75 -23.59375 C 20.269531 -23.875 20.738281 -24.222656 21.15625 -24.640625 C 21.957031 -25.441406 22.648438 -26.75 23.234375 -28.5625 C 23.234375 -28.90625 23.296875 -29.25 23.421875 -29.59375 C 23.546875 -29.945312 23.625 -30.296875 23.65625 -30.640625 C 23.789062 -31.398438 23.476562 -31.9375 22.71875 -32.25 C 22.019531 -32.320312 21.148438 -31.75 20.109375 -30.53125 C 19.898438 -30.289062 19.742188 -30.171875 19.640625 -30.171875 Z M 19.640625 -30.171875 "/></g></g></g><g fill="#000000" fill-opacity="1"><g transform="translate(110.390622, 262.124983)"><g><path d="M 18.15625 -13.359375 C 17.207031 -10.640625 16.242188 -8.023438 15.265625 -5.515625 C 14.296875 -3.015625 13.488281 -1.113281 12.84375 0.1875 C 12.195312 1.488281 11.628906 2.378906 11.140625 2.859375 C 10.660156 3.347656 10.164062 3.675781 9.65625 3.84375 C 9.15625 4.019531 8.65625 4.09375 8.15625 4.0625 C 7.65625 4.03125 7.144531 3.992188 6.625 3.953125 C 3.695312 3.503906 2.789062 1.40625 3.90625 -2.34375 C 4.632812 -5.332031 5.222656 -7.769531 5.671875 -9.65625 C 6.128906 -11.550781 6.503906 -13.113281 6.796875 -14.34375 C 7.097656 -15.582031 7.351562 -16.609375 7.5625 -17.421875 C 7.769531 -18.242188 7.992188 -19.050781 8.234375 -19.84375 C 8.472656 -20.644531 8.773438 -21.550781 9.140625 -22.5625 C 9.503906 -23.570312 9.984375 -24.910156 10.578125 -26.578125 C 9.253906 -26.398438 8.070312 -26.539062 7.03125 -27 C 5.5 -27.65625 4.875 -29.078125 5.15625 -31.265625 C 5.300781 -32.273438 5.84375 -33.210938 6.78125 -34.078125 C 7.257812 -34.523438 7.832031 -35.007812 8.5 -35.53125 C 9.851562 -36.613281 12.546875 -37.765625 16.578125 -38.984375 C 20.742188 -40.234375 24.320312 -40.820312 27.3125 -40.75 C 28.101562 -40.882812 28.925781 -40.785156 29.78125 -40.453125 C 30.632812 -40.128906 31.320312 -39.6875 31.84375 -39.125 C 32.363281 -38.570312 32.628906 -37.960938 32.640625 -37.296875 C 32.660156 -36.640625 32.238281 -36.050781 31.375 -35.53125 C 30.957031 -35.257812 30.660156 -34.800781 30.484375 -34.15625 C 30.304688 -33.507812 30.113281 -32.832031 29.90625 -32.125 C 29.695312 -31.414062 29.394531 -30.765625 29 -30.171875 C 28.601562 -29.578125 27.96875 -29.226562 27.09375 -29.125 C 26.644531 -28.882812 26.007812 -28.710938 25.1875 -28.609375 C 24.375 -28.503906 23.835938 -28.425781 23.578125 -28.375 C 23.316406 -28.320312 23.171875 -28.226562 23.140625 -28.09375 C 22.515625 -26.25 21.765625 -24.015625 20.890625 -21.390625 C 20.023438 -18.765625 19.113281 -16.085938 18.15625 -13.359375 Z M 11.09375 -27.15625 C 11.03125 -27.15625 11 -27.144531 11 -27.125 C 11 -27.101562 11.03125 -27.09375 11.09375 -27.09375 Z M 11.09375 -27.15625 "/></g></g></g><g fill="#000000" fill-opacity="1"><g transform="translate(136.5456, 262.124983)"><g><path d="M 10.578125 -34.5 C 12.765625 -37 15.195312 -38.5625 17.875 -39.1875 C 19.71875 -39.632812 21.453125 -39.566406 23.078125 -38.984375 C 24.367188 -40.335938 26.039062 -40.820312 28.09375 -40.4375 C 29.96875 -40.09375 31.5625 -39.035156 32.875 -37.265625 C 32.945312 -37.015625 33.09375 -36.644531 33.3125 -36.15625 C 33.539062 -35.675781 33.757812 -35.140625 33.96875 -34.546875 C 35.5 -31.003906 35.625 -26.347656 34.34375 -20.578125 C 32.738281 -13.421875 29.90625 -7.359375 25.84375 -2.390625 C 24.59375 -0.867188 23.1875 0.394531 21.625 1.40625 C 19.125 3.3125 16.132812 4.160156 12.65625 3.953125 C 10.507812 3.847656 8.707031 3.3125 7.25 2.34375 C 1.445312 -0.539062 -0.445312 -6.550781 1.5625 -15.6875 C 3.226562 -23.1875 6.234375 -29.457031 10.578125 -34.5 Z M 11.203125 -6.828125 L 11.15625 -6.515625 L 11.25 -5.9375 C 11.457031 -4.863281 11.804688 -4.039062 12.296875 -3.46875 C 12.785156 -2.894531 13.1875 -2.535156 13.5 -2.390625 C 13.84375 -2.671875 14.1875 -2.929688 14.53125 -3.171875 C 14.882812 -3.421875 15.195312 -3.71875 15.46875 -4.0625 C 17.832031 -6.976562 19.675781 -10.796875 21 -15.515625 C 22.320312 -20.242188 22.804688 -24.625 22.453125 -28.65625 C 21.097656 -26.925781 19.675781 -24.929688 18.1875 -22.671875 C 16.695312 -20.410156 15.515625 -18.484375 14.640625 -16.890625 C 12.660156 -13.171875 11.515625 -9.816406 11.203125 -6.828125 Z M 11.203125 -6.828125 "/></g></g></g><g fill="#000000" fill-opacity="1"><g transform="translate(169.838486, 262.124983)"><g><path d="M 17.875 -37.734375 L 17.875 -37.625 C 17.875 -37.59375 17.878906 -37.578125 17.890625 -37.578125 C 17.910156 -37.578125 17.921875 -37.554688 17.921875 -37.515625 L 17.921875 -37.421875 L 17.984375 -37.421875 L 18.296875 -36.578125 C 18.640625 -35.566406 17.734375 -32.441406 15.578125 -27.203125 C 13.285156 -21.609375 12.226562 -17.25 12.40625 -14.125 C 12.78125 -11.894531 14.640625 -13.679688 17.984375 -19.484375 C 20.617188 -24.003906 23.171875 -28.957031 25.640625 -34.34375 C 25.953125 -35.070312 26.28125 -35.828125 26.625 -36.609375 C 26.976562 -37.390625 27.414062 -38.039062 27.9375 -38.5625 C 29.082031 -39.8125 30.46875 -40.140625 32.09375 -39.546875 C 32.65625 -40.210938 33.304688 -40.664062 34.046875 -40.90625 C 34.796875 -41.144531 35.507812 -41.195312 36.1875 -41.0625 C 36.863281 -40.925781 37.445312 -40.601562 37.9375 -40.09375 C 38.425781 -39.59375 38.6875 -38.925781 38.71875 -38.09375 C 38.820312 -37.394531 38.460938 -35.742188 37.640625 -33.140625 C 36.828125 -30.535156 36.070312 -28.15625 35.375 -26 C 34.6875 -23.84375 33.976562 -21.5 33.25 -18.96875 C 31.476562 -12.957031 30.070312 -7.296875 29.03125 -1.984375 C 28.988281 -0.867188 28.507812 0.0507812 27.59375 0.78125 C 26.675781 1.507812 25.648438 1.984375 24.515625 2.203125 C 23.390625 2.429688 22.320312 2.390625 21.3125 2.078125 C 20.09375 1.734375 19.453125 0.867188 19.390625 -0.515625 C 19.390625 -0.898438 19.367188 -1.285156 19.328125 -1.671875 C 19.398438 -0.484375 18.550781 0.523438 16.78125 1.359375 C 16.289062 1.597656 15.835938 1.820312 15.421875 2.03125 C 12.992188 2.757812 10.441406 2.601562 7.765625 1.5625 C 6.515625 1.039062 5.394531 0.335938 4.40625 -0.546875 C 3.414062 -1.429688 2.726562 -2.484375 2.34375 -3.703125 C 1.125 -7.585938 1.347656 -12.691406 3.015625 -19.015625 C 3.710938 -21.722656 4.566406 -24.363281 5.578125 -26.9375 C 6.585938 -29.507812 7.328125 -31.367188 7.796875 -32.515625 C 8.265625 -33.660156 8.601562 -34.445312 8.8125 -34.875 C 9.019531 -35.3125 9.242188 -35.738281 9.484375 -36.15625 C 10.078125 -37.34375 10.582031 -38.144531 11 -38.5625 L 11.625 -39.140625 C 11.6875 -39.203125 11.753906 -39.242188 11.828125 -39.265625 C 11.898438 -39.285156 11.988281 -39.328125 12.09375 -39.390625 C 12.363281 -39.566406 12.65625 -39.691406 12.96875 -39.765625 L 13.703125 -39.921875 L 14.015625 -39.921875 C 15.023438 -40.054688 15.894531 -39.847656 16.625 -39.296875 C 16.625 -39.253906 16.660156 -39.234375 16.734375 -39.234375 L 17.140625 -38.875 L 17.296875 -38.71875 L 17.453125 -38.515625 C 17.453125 -38.472656 17.460938 -38.453125 17.484375 -38.453125 C 17.503906 -38.453125 17.515625 -38.4375 17.515625 -38.40625 L 17.5625 -38.359375 L 17.5625 -38.25 C 17.59375 -38.25 17.609375 -38.234375 17.609375 -38.203125 L 17.609375 -38.140625 C 17.648438 -38.109375 17.6875 -38.09375 17.71875 -38.09375 L 17.71875 -38.046875 C 17.71875 -38.003906 17.722656 -37.984375 17.734375 -37.984375 C 17.753906 -37.984375 17.765625 -37.972656 17.765625 -37.953125 C 17.765625 -37.941406 17.785156 -37.921875 17.828125 -37.890625 L 17.828125 -37.828125 C 17.828125 -37.796875 17.84375 -37.765625 17.875 -37.734375 Z M 19.28125 -3.015625 L 19.28125 -3.171875 C 19.25 -3.140625 19.234375 -3.003906 19.234375 -2.765625 C 19.234375 -2.867188 19.25 -2.9375 19.28125 -2.96875 Z M 19.28125 -3.015625 "/></g></g></g><g fill="#000000" fill-opacity="1"><g transform="translate(205.528052, 262.124983)"><g><path d="M 9.125 0.15625 C 8.8125 1.539062 7.734375 2.390625 5.890625 2.703125 C 4.179688 3.015625 2.566406 2.828125 1.046875 2.140625 C -0.660156 1.410156 -1.410156 0.382812 -1.203125 -0.9375 C -1.410156 -2.945312 -0.347656 -7.320312 1.984375 -14.0625 C 5.453125 -24.175781 8.925781 -31.40625 12.40625 -35.75 C 13.300781 -36.863281 14.070312 -37.582031 14.71875 -37.90625 C 15.363281 -38.238281 16.101562 -38.539062 16.9375 -38.8125 C 17.769531 -39.09375 18.640625 -39.359375 19.546875 -39.609375 C 21.347656 -40.085938 23.054688 -40.421875 24.671875 -40.609375 C 26.285156 -40.804688 27.734375 -40.617188 29.015625 -40.046875 C 30.304688 -39.472656 31.304688 -38.628906 32.015625 -37.515625 C 32.734375 -36.398438 33.175781 -35.085938 33.34375 -33.578125 C 33.519531 -32.066406 33.46875 -30.488281 33.1875 -28.84375 C 32.914062 -27.195312 32.414062 -25.53125 31.6875 -23.84375 C 30.957031 -22.15625 30.035156 -20.582031 28.921875 -19.125 C 26.484375 -15.925781 23.632812 -13.859375 20.375 -12.921875 L 20.890625 -12.03125 C 21.347656 -11.34375 21.894531 -10.582031 22.53125 -9.75 C 23.175781 -8.914062 23.816406 -8.0625 24.453125 -7.1875 C 25.097656 -6.320312 25.679688 -5.453125 26.203125 -4.578125 C 26.734375 -3.710938 27.117188 -2.898438 27.359375 -2.140625 C 27.910156 -0.429688 27.476562 0.800781 26.0625 1.5625 C 24.90625 2.257812 24 2.429688 23.34375 2.078125 C 23.0625 1.910156 22.78125 1.695312 22.5 1.4375 C 22.226562 1.175781 21.847656 0.957031 21.359375 0.78125 C 19.316406 1.375 17.753906 0.851562 16.671875 -0.78125 C 16.015625 -1.820312 15.507812 -2.773438 15.15625 -3.640625 C 14.8125 -4.515625 14.519531 -5.25 14.28125 -5.84375 C 13.65625 -7.125 12.941406 -8.234375 12.140625 -9.171875 C 11.753906 -8.234375 11.320312 -7.035156 10.84375 -5.578125 C 10.25 -3.734375 9.585938 -1.820312 8.859375 0.15625 Z M 19.640625 -30.171875 C 18.984375 -28.679688 18.535156 -27.640625 18.296875 -27.046875 C 17.804688 -25.859375 17.265625 -24.554688 16.671875 -23.140625 C 16.566406 -22.367188 16.484375 -21.828125 16.421875 -21.515625 L 17.140625 -22.25 L 18.03125 -22.671875 C 18.65625 -23.015625 19.226562 -23.320312 19.75 -23.59375 C 20.269531 -23.875 20.738281 -24.222656 21.15625 -24.640625 C 21.957031 -25.441406 22.648438 -26.75 23.234375 -28.5625 C 23.234375 -28.90625 23.296875 -29.25 23.421875 -29.59375 C 23.546875 -29.945312 23.625 -30.296875 23.65625 -30.640625 C 23.789062 -31.398438 23.476562 -31.9375 22.71875 -32.25 C 22.019531 -32.320312 21.148438 -31.75 20.109375 -30.53125 C 19.898438 -30.289062 19.742188 -30.171875 19.640625 -30.171875 Z M 19.640625 -30.171875 "/></g></g></g><g fill="#000000" fill-opacity="1"><g transform="translate(235.85115, 262.124983)"><g><path d="M 8.65625 3.015625 C 6.882812 3.085938 5.257812 2.867188 3.78125 2.359375 C 2.300781 1.859375 1.097656 1.175781 0.171875 0.3125 C -0.742188 -0.550781 -1.320312 -1.566406 -1.5625 -2.734375 C -1.800781 -3.898438 -1.59375 -5.09375 -0.9375 -6.3125 C -0.03125 -7.769531 1.773438 -8.203125 4.484375 -7.609375 C 6.535156 -7.191406 7.953125 -6.960938 8.734375 -6.921875 C 9.515625 -6.890625 10.179688 -7 10.734375 -7.25 C 13.265625 -8.082031 14.6875 -8.984375 15 -9.953125 C 15.207031 -10.679688 14.757812 -11.53125 13.65625 -12.5 C 13.195312 -12.914062 12.691406 -13.332031 12.140625 -13.75 C 11.585938 -14.164062 11.117188 -14.582031 10.734375 -15 C 8.992188 -16.289062 7.628906 -17.773438 6.640625 -19.453125 C 5.648438 -21.140625 5.242188 -22.972656 5.421875 -24.953125 C 5.597656 -26.941406 5.925781 -28.585938 6.40625 -29.890625 C 6.894531 -31.191406 7.503906 -32.34375 8.234375 -33.34375 C 9.515625 -35.113281 11.179688 -36.554688 13.234375 -37.671875 C 15.597656 -38.890625 17.492188 -39.671875 18.921875 -40.015625 C 21.734375 -40.640625 24.582031 -40.691406 27.46875 -40.171875 C 28.4375 -40.003906 29.265625 -39.675781 29.953125 -39.1875 C 30.648438 -38.695312 31.347656 -38.191406 32.046875 -37.671875 C 33.265625 -36.453125 33.5625 -35.21875 32.9375 -33.96875 C 32.6875 -33.414062 32.300781 -32.960938 31.78125 -32.609375 C 31.257812 -32.265625 30.707031 -32.078125 30.125 -32.046875 C 30.1875 -31.109375 30.007812 -30.414062 29.59375 -29.96875 C 28.800781 -29.164062 27.410156 -28.644531 25.421875 -28.40625 C 22.578125 -28.613281 20.648438 -28.457031 19.640625 -27.9375 C 18.460938 -27.3125 18.03125 -25.953125 18.34375 -23.859375 C 18.414062 -23.410156 18.703125 -22.941406 19.203125 -22.453125 C 19.703125 -21.972656 20.289062 -21.453125 20.96875 -20.890625 C 21.644531 -20.335938 22.359375 -19.710938 23.109375 -19.015625 C 23.859375 -18.328125 24.507812 -17.53125 25.0625 -16.625 C 27.007812 -13.425781 26.851562 -9.691406 24.59375 -5.421875 C 22.925781 -2.222656 20.078125 0.171875 16.046875 1.765625 C 13.960938 2.597656 11.5 3.015625 8.65625 3.015625 Z M 8.65625 3.015625 "/></g></g></g></svg>